<?xml version="1.0" encoding="UTF-8" standalone="no"?>
<svg width="200px" height="240px" viewBox="0 0 200 240" version="1.1" xmlns="http://www.w3.org/2000/svg" xmlns:xlink="http://www.w3.org/1999/xlink" xmlns:sketch="http://www.bohemiancoding.com/sketch/ns">
    <!-- Generator: Sketch 3.3.2 (12043) - http://www.bohemiancoding.com/sketch -->
    <title>android-robot</title>
    <desc>Created with Sketch.</desc>
    <defs></defs>
    <g id="Page-1" stroke="none" stroke-width="1" fill="none" fill-rule="evenodd" sketch:type="MSPage">
        <g id="android-robot" sketch:type="MSArtboardGroup" fill="#15A302">
            <g sketch:type="MSLayerGroup" id="Shape">
                <path d="M40,179.229975 C40,184.706066 44.5,189.186505 50,189.186505 L60,189.186505 L60,224.034358 C60,232.298277 66.7,238.969152 75,238.969152 C83.3,238.969152 90,232.298277 90,224.034358 L90,189.186505 L110,189.186505 L110,224.034358 C110,232.298277 116.7,238.969152 125,238.969152 C133.3,238.969152 140,232.298277 140,224.034358 L140,189.186505 L150,189.186505 C155.5,189.186505 160,184.706066 160,179.229975 L160,79.664681 L40,79.664681 L40,179.229975 L40,179.229975 Z M15,79.664681 C6.7,79.664681 0,86.3355557 0,94.5994752 L0,164.295181 C0,172.559101 6.7,179.229975 15,179.229975 C23.3,179.229975 30,172.559101 30,164.295181 L30,94.5994752 C30,86.3355557 23.3,79.664681 15,79.664681 L15,79.664681 Z M185,79.664681 C176.7,79.664681 170,86.3355557 170,94.5994752 L170,164.295181 C170,172.559101 176.7,179.229975 185,179.229975 C193.3,179.229975 200,172.559101 200,164.295181 L200,94.5994752 C200,86.3355557 193.3,79.664681 185,79.664681 L185,79.664681 Z M135.3,21.5185492 L148.35,8.52527832 C150.3,6.58375508 150.3,3.44744831 148.35,1.50592507 C146.4,-0.435598162 143.25,-0.435598162 141.3,1.50592507 L126.5,16.191806 C118.5,12.2589768 109.55,9.96897508 100,9.96897508 C90.4,9.96897508 81.4,12.2589768 73.35,16.2415886 L58.5,1.45614243 C56.55,-0.485380809 53.4,-0.485380809 51.45,1.45614243 C49.5,3.39766566 49.5,6.53397243 51.45,8.47549567 L64.55,21.5185492 C49.7,32.4209489 40,49.9444407 40,69.7081516 L160,69.7081516 C160,49.8946581 150.25,32.3711663 135.3,21.5185492 L135.3,21.5185492 Z M125,49.7826471 C127.761424,49.7826471 130,47.5538021 130,44.8043824 C130,42.0549627 127.761424,39.8261177 125,39.8261177 C122.238576,39.8261177 120,42.0549627 120,44.8043824 C120,47.5538021 122.238576,49.7826471 125,49.7826471 Z M75,49.7826471 C77.7614237,49.7826471 80,47.5538021 80,44.8043824 C80,42.0549627 77.7614237,39.8261177 75,39.8261177 C72.2385763,39.8261177 70,42.0549627 70,44.8043824 C70,47.5538021 72.2385763,49.7826471 75,49.7826471 Z" sketch:type="MSShapeGroup"></path>
            </g>
        </g>
    </g>
</svg>