<?xml version="1.0" encoding="UTF-8" standalone="no"?>
<svg width="320px" height="280px" viewBox="0 0 320 280" version="1.1" xmlns="http://www.w3.org/2000/svg" xmlns:xlink="http://www.w3.org/1999/xlink" xmlns:sketch="http://www.bohemiancoding.com/sketch/ns">
    <!-- Generator: Sketch 3.3.2 (12043) - http://www.bohemiancoding.com/sketch -->
    <title>react-logo</title>
    <desc>Created with Sketch.</desc>
    <defs></defs>
    <g id="Page-1" stroke="none" stroke-width="1" fill="none" fill-rule="evenodd" sketch:type="MSPage">
        <g id="react-logo" sketch:type="MSArtboardGroup">
            <g sketch:type="MSLayerGroup" transform="translate(5.000000, 2.000000)" id="Shape">
                <path d="M184.058188,137.928968 C184.058188,153.974589 171.113205,166.982626 155.145363,166.982626 C139.17752,166.982626 126.232537,153.974589 126.232537,137.928968 C126.232537,121.883347 139.17752,108.875309 155.145363,108.875309 C171.113205,108.875309 184.058188,121.883347 184.058188,137.928968 L184.058188,137.928968 Z" fill-opacity="0.5" fill="#FFFFFF" sketch:type="MSShapeGroup"></path>
                <path d="M155.145363,78.856805 C193.964751,78.856805 230.02697,84.454182 257.217717,93.8605552 C289.978709,105.193723 310.121497,122.373298 310.121497,137.928968 C310.121497,154.139643 288.773599,172.389467 253.593168,184.10255 C226.99489,192.958162 191.995426,197.580269 155.145363,197.580269 C117.364523,197.580269 81.5881648,193.241361 54.696534,184.004675 C20.6664604,172.316495 0.1692283,153.829804 0.1692283,137.928968 C0.1692283,122.49955 19.4014126,105.453178 51.7019152,94.1368044 C78.9940965,84.5758012 115.946747,78.856805 155.145363,78.856805 L155.145363,78.856805 Z" stroke="#FFFFFF" sketch:type="MSShapeGroup"></path>
                <path d="M103.971154,108.563153 C123.364135,74.7715596 146.205307,46.1759998 167.897851,27.2057277 C194.034488,4.34943384 218.907229,-4.60231535 232.317312,3.16856973 C246.2922,11.2666683 251.360459,38.9674585 243.882557,75.4427815 C238.228745,103.020215 224.728754,135.795999 206.319571,167.873921 C187.445289,200.762058 165.832279,229.736954 144.434817,248.531747 C117.358183,272.315821 91.1817801,280.922403 77.4737338,272.978935 C64.1725776,265.270597 59.0852989,240.013772 65.466442,206.243028 C70.8580238,177.708857 84.3885599,142.685435 103.971154,108.563153 L103.971154,108.563153 Z" stroke="#FFFFFF" sketch:type="MSShapeGroup"></path>
                <path d="M104.020142,167.959633 C84.571257,134.200472 71.324276,100.034175 65.8024433,71.6749042 C59.1492717,37.5062912 63.8532899,11.3813377 77.2506935,3.58786625 C91.2117493,-4.53397696 117.625601,4.88745383 145.338505,29.6143661 C166.291615,48.3089682 187.807225,76.4302132 206.270007,108.477441 C225.199041,141.333725 239.386595,174.620309 244.904969,202.634993 C251.888379,238.085819 246.235719,265.172722 232.540928,273.139356 C219.252452,280.869702 194.93587,272.685312 169.006713,250.263951 C147.098621,231.31974 123.659793,202.048904 104.020142,167.959633 L104.020142,167.959633 Z" stroke="#FFFFFF" sketch:type="MSShapeGroup"></path>
            </g>
        </g>
    </g>
</svg>